<svg xmlns="http://www.w3.org/2000/svg" width="151" height="44" fill="none"><path fill="#605DC8" fill-rule="evenodd" d="M6.16 33.3c-.9 0-1.58-.73-1.58-1.63v-7.65c0-4.47-.23-3.4 3.02-6.6 14.13-13.35 8.64-13.17 22.01.63 2.43 2.71 2.39 1.4 2.39 5.78v7.84c0 .9-.72 1.62-1.63 1.62H6.16ZM30.9 35.15l-25.16.1c-.94.01-1.99.57-2.37 1.27l-.47.88L.54 41.8l-.4.74c-.38.7.02 1.25.96 1.25l25.16-.1c.94 0 1.99-.57 2.36-1.27l.48-.88 2.36-4.38.4-.74c.37-.7-.03-1.26-.96-1.26Z" clip-rule="evenodd"/><path fill="#605DC8" d="M2.55 18.72c-.32 0-.64-.1-.93-.27a1.74 1.74 0 0 1-.52-2.4c.36-.58 1.6-1.83 4.4-4.58l.9-.88c2.33-2.2 4.11-4.02 5.54-5.48C15.17 1.8 16.8.15 18.9.22c2.09.06 3.54 1.7 6.41 4.98 1.42 1.6 3.17 3.6 5.54 6.05l.05.05 1.34 1.48a62.12 62.12 0 0 1 2.84 3.19 1.72 1.72 0 0 1-2.8 2c-.22-.28-1.7-1.9-2.57-2.86l-1.35-1.48c-2.41-2.5-4.19-4.52-5.62-6.15-1.72-1.95-3.34-3.79-3.93-3.8-.64 0-2.47 1.86-4.41 3.84a188.27 188.27 0 0 1-5.62 5.56l-.87.85c-1.16 1.14-3.57 3.5-3.93 4-.33.52-.87.8-1.43.8v-.01Z"/><path fill="#fff" fill-rule="evenodd" d="M22.1 33.21v-7.15c0-.6-.48-1.07-1.07-1.07H15.2c-.6 0-1.08.48-1.08 1.07v7.15c0 .06 0 .12-.02.17h8.03a.57.57 0 0 1-.03-.17Z" clip-rule="evenodd"/><path fill="#605DC8" d="M58.98 10.05v22.17h-4.45V22.8h-9.5v9.43H40.6V10.05h4.45v9.12h9.5v-9.12h4.44Zm11.87 22.46c-1.7 0-3.22-.37-4.57-1.12a8.34 8.34 0 0 1-3.21-3.2 9.67 9.67 0 0 1-1.14-4.77c0-1.8.39-3.39 1.17-4.76a8.27 8.27 0 0 1 3.27-3.18 9.34 9.34 0 0 1 4.6-1.14c1.7 0 3.24.38 4.61 1.14a8.06 8.06 0 0 1 3.24 3.18 9.26 9.26 0 0 1 1.21 4.76c0 1.8-.41 3.39-1.24 4.77a8.44 8.44 0 0 1-3.3 3.2 9.62 9.62 0 0 1-4.64 1.12Zm0-3.88a4.35 4.35 0 0 0 3.97-2.35c.42-.78.64-1.74.64-2.86 0-1.67-.45-2.95-1.34-3.84a4.26 4.26 0 0 0-3.2-1.37c-1.28 0-2.35.46-3.21 1.37-.85.89-1.27 2.17-1.27 3.84 0 1.68.4 2.97 1.23 3.88a4.2 4.2 0 0 0 3.18 1.33Zm33.98-14.26c2.16 0 3.9.67 5.2 2 1.34 1.31 2 3.16 2 5.53v10.32h-4.44V22.5c0-1.37-.35-2.42-1.05-3.14a3.74 3.74 0 0 0-2.86-1.11c-1.2 0-2.17.37-2.89 1.1-.7.73-1.05 1.78-1.05 3.15v9.72H95.3V22.5c0-1.37-.35-2.42-1.05-3.14a3.74 3.74 0 0 0-2.86-1.11c-1.23 0-2.2.37-2.92 1.1-.7.73-1.05 1.78-1.05 3.15v9.72h-4.45v-17.6h4.45v2.13a5.95 5.95 0 0 1 2.2-1.74 7 7 0 0 1 2.98-.64c1.37 0 2.6.3 3.68.89a6.02 6.02 0 0 1 2.51 2.48 6.4 6.4 0 0 1 2.48-2.45 7.19 7.19 0 0 1 3.56-.92Zm27.46 8.67c0 .64-.04 1.2-.12 1.72H119.3c.11 1.27.55 2.26 1.34 2.98a4.11 4.11 0 0 0 2.89 1.08c1.65 0 2.83-.7 3.52-2.13h4.8a8.1 8.1 0 0 1-2.92 4.2 8.58 8.58 0 0 1-5.3 1.62c-1.7 0-3.22-.37-4.58-1.12a8.19 8.19 0 0 1-3.14-3.2 9.9 9.9 0 0 1-1.12-4.77c0-1.82.37-3.42 1.11-4.8a7.76 7.76 0 0 1 3.12-3.17 9.32 9.32 0 0 1 4.6-1.11c1.68 0 3.17.36 4.48 1.08a7.45 7.45 0 0 1 3.08 3.08 9.07 9.07 0 0 1 1.11 4.54Zm-4.6-1.27a3.48 3.48 0 0 0-1.24-2.73 4.35 4.35 0 0 0-2.95-1.05c-1.1 0-2.04.34-2.8 1.02a4.37 4.37 0 0 0-1.36 2.76h8.35Zm14.27 10.74a9.44 9.44 0 0 1-3.88-.77 7.1 7.1 0 0 1-2.73-2.12 5.42 5.42 0 0 1-1.08-2.96h4.48c.08.68.41 1.24.98 1.69.6.44 1.33.66 2.2.66.84 0 1.5-.17 1.96-.5.49-.34.73-.78.73-1.3 0-.58-.3-1-.89-1.28-.57-.3-1.49-.61-2.76-.95-1.31-.32-2.4-.65-3.24-.99a5.76 5.76 0 0 1-2.16-1.55c-.6-.7-.89-1.64-.89-2.83 0-.97.28-1.86.83-2.67a5.78 5.78 0 0 1 2.41-1.9c1.06-.47 2.3-.7 3.72-.7 2.1 0 3.77.53 5.02 1.59a5.78 5.78 0 0 1 2.06 4.22h-4.25a2.23 2.23 0 0 0-.9-1.65c-.5-.42-1.2-.64-2.06-.64-.8 0-1.43.15-1.87.45-.43.3-.64.7-.64 1.24 0 .6.3 1.05.9 1.36.58.3 1.5.6 2.75.92 1.28.32 2.32.65 3.15.99.82.34 1.53.87 2.13 1.59.61.7.93 1.63.95 2.8a4.6 4.6 0 0 1-.86 2.72 5.53 5.53 0 0 1-2.41 1.9 9.22 9.22 0 0 1-3.66.68Z"/></svg>